{
  "accessors": [
    {
      "bufferView": 0,
      "componentType": 5125,
      "count": 120,
      "type": "SCALAR"
    },
    {
      "bufferView": 1,
      "componentType": 5126,
      "count": 50,
      "max": [
        0.999747514724731,
        -0.0366460978984833,
        0.302833527326584
      ],
      "min": [
        -0.843839883804321,
        -0.112146556377411,
        -0.302833467721939
      ],
      "type": "VEC3"
    },
    {
      "bufferView": 2,
      "componentType": 5126,
      "count": 50,
      "type": "VEC3"
    },
    {
      "bufferView": 3,
      "componentType": 5126,
      "count": 50,
      "type": "VEC2"
    },
    {
      "bufferView": 4,
      "componentType": 5125,
      "count": 4536,
      "type": "SCALAR"
    },
    {
      "bufferView": 5,
      "componentType": 5126,
      "count": 4315,
      "max": [
        0.901499390602112,
        0.308016151189804,
        0.384491682052612
      ],
      "min": [
        -1.0,
        -0.308016180992126,
        -0.384491682052612
      ],
      "type": "VEC3"
    },
    {
      "bufferView": 6,
      "componentType": 5126,
      "count": 4315,
      "type": "VEC3"
    },
    {
      "bufferView": 7,
      "componentType": 5126,
      "count": 4315,
      "type": "VEC2"
    },
    {
      "bufferView": 8,
      "componentType": 5125,
      "count": 15594,
      "type": "SCALAR"
    },
    {
      "bufferView": 9,
      "componentType": 5126,
      "count": 5198,
      "max": [
        0.897297501564026,
        0.304277867078781,
        0.378636538982391
      ],
      "min": [
        -0.995884954929352,
        -0.301540404558182,
        -0.378636419773102
      ],
      "type": "VEC3"
    },
    {
      "bufferView": 10,
      "componentType": 5126,
      "count": 5198,
      "type": "VEC3"
    },
    {
      "bufferView": 11,
      "componentType": 5126,
      "count": 5198,
      "type": "VEC2"
    }
  ],
  "asset": {
    "generator": "Substance Painter 2018.1.0",
    "version": "2.0"
  },
  "bufferViews": [
    {
      "buffer": 0,
      "byteLength": 480,
      "target": 34963
    },
    {
      "buffer": 0,
      "byteLength": 600,
      "byteOffset": 480,
      "target": 34962
    },
    {
      "buffer": 0,
      "byteLength": 600,
      "byteOffset": 1080,
      "target": 34962
    },
    {
      "buffer": 0,
      "byteLength": 400,
      "byteOffset": 1680,
      "target": 34962
    },
    {
      "buffer": 0,
      "byteLength": 18144,
      "byteOffset": 2080,
      "target": 34963
    },
    {
      "buffer": 0,
      "byteLength": 51780,
      "byteOffset": 20224,
      "target": 34962
    },
    {
      "buffer": 0,
      "byteLength": 51780,
      "byteOffset": 72004,
      "target": 34962
    },
    {
      "buffer": 0,
      "byteLength": 34520,
      "byteOffset": 123784,
      "target": 34962
    },
    {
      "buffer": 0,
      "byteLength": 62376,
      "byteOffset": 158304,
      "target": 34963
    },
    {
      "buffer": 0,
      "byteLength": 62376,
      "byteOffset": 220680,
      "target": 34962
    },
    {
      "buffer": 0,
      "byteLength": 62376,
      "byteOffset": 283056,
      "target": 34962
    },
    {
      "buffer": 0,
      "byteLength": 41584,
      "byteOffset": 345432,
      "target": 34962
    }
  ],
  "buffers": [
    {
      "byteLength": 387016,
      "uri": "spaceship_complete.bin"
    }
  ],
  "images": [
    {
      "uri": "body_baseColor.png"
    },
    {
      "uri": "body_occlusionRoughnessMetallic.png"
    },
    {
      "uri": "body_normal.png"
    },
    {
      "uri": "body_emissive.png"
    },
    {
      "uri": "exhaust_baseColor.png"
    },
    {
      "uri": "exhaust_occlusionRoughnessMetallic.png"
    },
    {
      "uri": "exhaust_normal.png"
    },
    {
      "uri": "exhaust_emissive.png"
    },
    {
      "uri": "outline_baseColor.png"
    },
    {
      "uri": "outline_occlusionRoughnessMetallic.png"
    },
    {
      "uri": "outline_normal.png"
    }
  ],
  "materials": [
    {
      "alphaMode": "OPAQUE",
      "emissiveFactor": [
        1.0,
        1.0,
        1.0
      ],
      "emissiveTexture": {
        "index": 3
      },
      "name": "body",
      "normalTexture": {
        "index": 2
      },
      "occlusionTexture": {
        "index": 1
      },
      "pbrMetallicRoughness": {
        "baseColorTexture": {
          "index": 0
        },
        "metallicRoughnessTexture": {
          "index": 1
        }
      }
    },
    {
      "alphaMode": "BLEND",
      "emissiveFactor": [
        1.0,
        1.0,
        1.0
      ],
      "emissiveTexture": {
        "index": 7
      },
      "name": "exhaust",
      "normalTexture": {
        "index": 6
      },
      "occlusionTexture": {
        "index": 5
      },
      "pbrMetallicRoughness": {
        "baseColorTexture": {
          "index": 4
        },
        "metallicRoughnessTexture": {
          "index": 5
        }
      }
    },
    {
      "alphaMode": "BLEND",
      "name": "outline",
      "normalTexture": {
        "index": 10
      },
      "occlusionTexture": {
        "index": 9
      },
      "pbrMetallicRoughness": {
        "baseColorTexture": {
          "index": 8
        },
        "metallicRoughnessTexture": {
          "index": 9
        }
      }
    }
  ],
  "meshes": [
    {
      "name": "spaceship_exhaust_glow",
      "primitives": [
        {
          "attributes": {
            "NORMAL": 2,
            "POSITION": 1,
            "TEXCOORD_0": 3
          },
          "indices": 0,
          "material": 1,
          "mode": 4
        }
      ]
    },
    {
      "name": "spaceship_outline",
      "primitives": [
        {
          "attributes": {
            "NORMAL": 6,
            "POSITION": 5,
            "TEXCOORD_0": 7
          },
          "indices": 4,
          "material": 2,
          "mode": 4
        }
      ]
    },
    {
      "name": "spaceship_body_low",
      "primitives": [
        {
          "attributes": {
            "NORMAL": 10,
            "POSITION": 9,
            "TEXCOORD_0": 11
          },
          "indices": 8,
          "material": 0,
          "mode": 4
        }
      ]
    }
  ],
  "nodes": [
    {
      "children": [
        1,
        3,
        5
      ],
      "name": "root",
      "scale": [
        264.105590820313,
        264.105590820313,
        264.105590820313
      ],
      "translation": [
        13.1181640625,
        79.6385040283203,
        -7.62939453125e-06
      ]
    },
    {
      "children": [
        2
      ],
      "name": "spaceship_exhaust_glow"
    },
    {
      "mesh": 0,
      "name": "spaceship_exhaust_glow"
    },
    {
      "children": [
        4
      ],
      "name": "spaceship_outline"
    },
    {
      "mesh": 1,
      "name": "spaceship_outline"
    },
    {
      "children": [
        6
      ],
      "name": "spaceship_body_low"
    },
    {
      "mesh": 2,
      "name": "spaceship_body_low"
    }
  ],
  "samplers": [
    {
      "magFilter": 9729,
      "minFilter": 9985,
      "wrapS": 10497,
      "wrapT": 10497
    }
  ],
  "scene": 0,
  "scenes": [
    {
      "name": "Scene",
      "nodes": [
        0
      ]
    }
  ],
  "textures": [
    {
      "sampler": 0,
      "source": 0
    },
    {
      "sampler": 0,
      "source": 1
    },
    {
      "sampler": 0,
      "source": 2
    },
    {
      "sampler": 0,
      "source": 3
    },
    {
      "sampler": 0,
      "source": 4
    },
    {
      "sampler": 0,
      "source": 5
    },
    {
      "sampler": 0,
      "source": 6
    },
    {
      "sampler": 0,
      "source": 7
    },
    {
      "sampler": 0,
      "source": 8
    },
    {
      "sampler": 0,
      "source": 9
    },
    {
      "sampler": 0,
      "source": 10
    }
  ]
}