{
  "accessors": [
    {
      "bufferView": 0,
      "componentType": 5125,
      "count": 990,
      "type": "SCALAR"
    },
    {
      "bufferView": 1,
      "componentType": 5126,
      "count": 303,
      "max": [
        0.64045476913452148,
        1.6156895160675049,
        1.04779052734375
      ],
      "min": [
        -0.64045464992523193,
        -0.78907948732376099,
        -0.22173184156417847
      ],
      "type": "VEC3"
    },
    {
      "bufferView": 2,
      "componentType": 5126,
      "count": 303,
      "type": "VEC3"
    },
    {
      "bufferView": 3,
      "componentType": 5126,
      "count": 303,
      "type": "VEC2"
    },
    {
      "bufferView": 4,
      "componentType": 5125,
      "count": 5508,
      "type": "SCALAR"
    },
    {
      "bufferView": 5,
      "componentType": 5126,
      "count": 2033,
      "max": [
        2.1333639621734619,
        5.1481938362121582,
        3.8350346088409424
      ],
      "min": [
        -2.1333639621734619,
        -0.77028042078018188,
        -4.7074794769287109
      ],
      "type": "VEC3"
    },
    {
      "bufferView": 6,
      "componentType": 5126,
      "count": 2033,
      "type": "VEC3"
    },
    {
      "bufferView": 7,
      "componentType": 5126,
      "count": 2033,
      "type": "VEC2"
    },
    {
      "bufferView": 8,
      "componentType": 5125,
      "count": 11061,
      "type": "SCALAR"
    },
    {
      "bufferView": 9,
      "componentType": 5126,
      "count": 3651,
      "max": [
        3.331545352935791,
        3.8472170829772949,
        4.3410501480102539
      ],
      "min": [
        -3.331545352935791,
        -0.77539640665054321,
        -4.0749244689941406
      ],
      "type": "VEC3"
    },
    {
      "bufferView": 10,
      "componentType": 5126,
      "count": 3651,
      "type": "VEC3"
    },
    {
      "bufferView": 11,
      "componentType": 5126,
      "count": 3651,
      "type": "VEC2"
    }
  ],
  "asset": {
    "generator": "Substance Painter 2017.4.0",
    "version": "2.0"
  },
  "bufferViews": [
    {
      "buffer": 0,
      "byteLength": 3960,
      "byteOffset": 0,
      "target": 34963
    },
    {
      "buffer": 0,
      "byteLength": 3636,
      "byteOffset": 3960,
      "target": 34962
    },
    {
      "buffer": 0,
      "byteLength": 3636,
      "byteOffset": 7596,
      "target": 34962
    },
    {
      "buffer": 0,
      "byteLength": 2424,
      "byteOffset": 11232,
      "target": 34962
    },
    {
      "buffer": 0,
      "byteLength": 22032,
      "byteOffset": 13656,
      "target": 34963
    },
    {
      "buffer": 0,
      "byteLength": 24396,
      "byteOffset": 35688,
      "target": 34962
    },
    {
      "buffer": 0,
      "byteLength": 24396,
      "byteOffset": 60084,
      "target": 34962
    },
    {
      "buffer": 0,
      "byteLength": 16264,
      "byteOffset": 84480,
      "target": 34962
    },
    {
      "buffer": 0,
      "byteLength": 44244,
      "byteOffset": 100744,
      "target": 34963
    },
    {
      "buffer": 0,
      "byteLength": 43812,
      "byteOffset": 144988,
      "target": 34962
    },
    {
      "buffer": 0,
      "byteLength": 43812,
      "byteOffset": 188800,
      "target": 34962
    },
    {
      "buffer": 0,
      "byteLength": 29208,
      "byteOffset": 232612,
      "target": 34962
    }
  ],
  "buffers": [
    {
      "byteLength": 261820,
      "uri": "cannon_merged_uvs_2.bin"
    }
  ],
  "images": [
    {
      "uri": "cannon_2_merged_uvs_diff.png"
    },
    {
      "uri": "cannon_2_merged_uvs_orm.png"
    },
    {
      "uri": "cannon_2_merged_uvs_ddn.png"
    }
  ],
  "materials": [
    {
      "alphaMode": "OPAQUE",
      "name": "DefaultMaterial",
      "normalTexture": {
        "index": 2
      },
      "occlusionTexture": {
        "index": 1
      },
      "pbrMetallicRoughness": {
        "baseColorTexture": {
          "index": 0
        },
        "metallicRoughnessTexture": {
          "index": 1
        }
      }
    }
  ],
  "meshes": [
    {
      "name": "turret_rocket_low",
      "primitives": [
        {
          "attributes": {
            "NORMAL": 2,
            "POSITION": 1,
            "TEXCOORD_0": 3
          },
          "indices": 0,
          "material": 0,
          "mode": 4
        }
      ]
    },
    {
      "name": "cannon_main_head",
      "primitives": [
        {
          "attributes": {
            "NORMAL": 6,
            "POSITION": 5,
            "TEXCOORD_0": 7
          },
          "indices": 4,
          "material": 0,
          "mode": 4
        }
      ]
    },
    {
      "name": "cannon_main_legs",
      "primitives": [
        {
          "attributes": {
            "NORMAL": 10,
            "POSITION": 9,
            "TEXCOORD_0": 11
          },
          "indices": 8,
          "material": 0,
          "mode": 4
        }
      ]
    }
  ],
  "nodes": [
    {
      "children": [
        1,
        3,
        5
      ],
      "name": "root",
      "scale": [
        145.12794494628906,
        145.12794494628906,
        145.12794494628906
      ],
      "translation": [
        -7.62939453125e-06,
        111.78921508789063,
        -59.94207763671875
      ]
    },
    {
      "children": [
        2
      ],
      "name": "turret_rocket_low"
    },
    {
      "mesh": 0,
      "name": "turret_rocket_low"
    },
    {
      "children": [
        4
      ],
      "name": "cannon_main_head"
    },
    {
      "mesh": 1,
      "name": "cannon_main_head"
    },
    {
      "children": [
        6
      ],
      "name": "cannon_main_legs"
    },
    {
      "mesh": 2,
      "name": "cannon_main_legs"
    }
  ],
  "samplers": [
    {
      "magFilter": 9729,
      "minFilter": 9985,
      "wrapS": 10497,
      "wrapT": 10497
    }
  ],
  "scene": 0,
  "scenes": [
    {
      "name": "Scene",
      "nodes": [
        0
      ]
    }
  ],
  "textures": [
    {
      "sampler": 0,
      "source": 0
    },
    {
      "sampler": 0,
      "source": 1
    },
    {
      "sampler": 0,
      "source": 2
    }
  ]
}
