<?xml version="1.0" encoding="utf-8"?>
<!-- Generator: Adobe Illustrator 21.1.0, SVG Export Plug-In . SVG Version: 6.00 Build 0)  -->
<svg version="1.1" id="Layer_1" xmlns="http://www.w3.org/2000/svg" xmlns:xlink="http://www.w3.org/1999/xlink" x="0px" y="0px"
	 width="600px" height="96.6px" viewBox="0 0 600 96.6" enable-background="new 0 0 600 96.6" xml:space="preserve">
<polygon fill="#2D2D2D" points="312.4,32.9 291,89.8 281.4,89.8 260.1,32.9 260.1,89.8 238.4,89.8 238.4,5.4 268.6,5.4 286.2,53.3 
	303.9,5.4 334.2,5.4 334.2,89.8 312.4,89.8 "/>
<path fill="#2D2D2D" d="M487.3,61.2h-11.1v28.6h-21.8V5.4h42.3c18.7,0,29.4,12.4,29.4,28.1c0,14.7-9,22.5-16.8,25.3l17.2,31h-24.9
	L487.3,61.2z M493.4,23.8h-17.2v19h17.2c5.7,0,10.5-3.7,10.5-9.5S499.1,23.8,493.4,23.8"/>
<polygon fill="#2D2D2D" points="538.1,5.4 600,5.4 600,23.8 559.9,23.8 559.9,37.8 588.8,37.8 588.8,56.3 559.9,56.3 559.9,71.5 
	600,71.5 600,89.8 538.1,89.8 "/>
<path fill="#2D2D2D" d="M394.3,20.6c15.3,0,27.7,12.4,27.7,27.7c0,15.3-12.4,27.7-27.7,27.7s-27.7-12.4-27.7-27.7
	C366.6,33,379,20.6,394.3,20.6 M394.3,0C367.6,0,346,21.6,346,48.3c0,26.7,21.6,48.3,48.3,48.3c26.7,0,48.3-21.6,48.3-48.3
	C442.6,21.6,421,0,394.3,0"/>
<path fill="#00D3AA" d="M406.5,48.3c0,6.8-5.5,12.2-12.2,12.2c-6.8,0-12.2-5.5-12.2-12.2s5.5-12.2,12.2-12.2
	C401.1,36.1,406.5,41.5,406.5,48.3"/>
<path fill="#00D3AA" d="M11.5,61.6c6.1,6.1,15.5,11.2,27,11.2c7.5,0,12-3.2,12-7.2c0-4.8-5.5-6.7-14.5-8.6
	C22.2,54.2,2.7,50.6,2.7,30.6c0-14.2,12-26.5,33.7-26.5c13.6,0,25.4,4.1,34.4,11.8L58.8,31.5c-7.1-5.8-16.4-8.7-23.8-8.7
	c-7.2,0-10,2.9-10,6.6c0,4.4,5.2,6,14.6,7.7c13.9,2.9,33.2,7,33.2,26.1c0,17-12.6,28.3-35.2,28.3C20.4,91.4,8.5,86.1,0,78L11.5,61.6
	z"/>
<polygon fill="#00D3AA" points="82.9,5.4 144.9,5.4 144.9,23.7 104.7,23.7 104.7,37.8 133.7,37.8 133.7,56.3 104.7,56.3 104.7,71.5 
	144.9,71.5 144.9,89.9 82.9,89.9 "/>
<polygon fill="#00D3AA" points="157.6,5.4 219.6,5.4 219.6,23.7 179.4,23.7 179.4,37.8 208.4,37.8 208.4,56.3 179.4,56.3 
	179.4,71.5 219.6,71.5 219.6,89.9 157.6,89.9 "/>
<rect x="0" y="0" fill="none" width="600" height="96.6"/>
</svg>
