<?xml version="1.0" encoding="utf-8"?>
<!-- Generator: Adobe Illustrator 21.1.0, SVG Export Plug-In . SVG Version: 6.00 Build 0)  -->
<svg version="1.1" id="Layer_1" xmlns="http://www.w3.org/2000/svg" xmlns:xlink="http://www.w3.org/1999/xlink" x="0px" y="0px"
	 width="520.5px" height="520.5px" viewBox="0 0 520.5 520.5" enable-background="new 0 0 520.5 520.5" xml:space="preserve">
<polygon fill="#FFFFFF" points="0,0 0,28 0,83 28,83 28,28 83,28 83,0 "/>
<polygon fill="#FFFFFF" points="492.5,437.5 492.5,492.5 437.5,492.5 437.5,520.5 492.5,520.5 520.5,520.5 520.5,437.5 "/>
<polygon fill="#FFFFFF" points="0,437.5 0,492.5 0,520.5 28,520.5 83,520.5 83,492.5 28,492.5 28,437.5 "/>
<polygon fill="#FFFFFF" points="437.5,0 437.5,28 492.5,28 492.5,83 520.5,83 520.5,0 "/>
</svg>
