<?xml version="1.0" encoding="utf-8"?>
<!-- Generator: Adobe Illustrator 21.1.0, SVG Export Plug-In . SVG Version: 6.00 Build 0)  -->
<svg version="1.1" id="Capa_1" xmlns="http://www.w3.org/2000/svg" xmlns:xlink="http://www.w3.org/1999/xlink" x="0px" y="0px"
	 width="28.4px" height="28.4px" viewBox="0 0 28.4 28.4" enable-background="new 0 0 28.4 28.4" xml:space="preserve">
<g>
	<g id="c116_arrows">
		<path fill="#FFFFFF" d="M21.9,19.4h3.2c0.9,0,1.6-0.7,1.6-1.5c0-0.8-0.7-1.5-1.6-1.5h-6.8c-0.9,0-1.6,0.7-1.6,1.5c0,0,0,0,0,0.1
			c0,0,0,0.1,0,0.1v6.7c0,0.9,0.7,1.6,1.5,1.6c0.8,0,1.5-0.7,1.5-1.6v-3.3l6,6c0.6,0.6,1.5,0.6,2.1,0c0.6-0.6,0.6-1.5,0-2.1
			L21.9,19.4z"/>
		<path fill="#FFFFFF" d="M11.5,17.9c0-0.8-0.7-1.5-1.6-1.5H3.2c-0.9,0-1.6,0.7-1.6,1.5c0,0.8,0.7,1.5,1.6,1.5h3.2l-6,6
			c-0.6,0.6-0.6,1.5,0,2.1C1,28,2,28,2.5,27.5l6-6v3.3c0,0.9,0.7,1.6,1.5,1.6c0.8,0,1.5-0.7,1.5-1.6V18C11.5,18,11.5,18,11.5,17.9
			C11.5,17.9,11.5,17.9,11.5,17.9z"/>
		<path fill="#FFFFFF" d="M16.8,10.5c0,0.8,0.7,1.5,1.6,1.5h6.8c0.9,0,1.6-0.7,1.6-1.5C26.8,9.7,26,9,25.2,9h-3.2l6-6
			c0.6-0.6,0.6-1.5,0-2.1c-0.6-0.6-1.5-0.6-2.1,0l-6,6V3.7c0-0.9-0.7-1.6-1.5-1.6c-0.8,0-1.5,0.7-1.5,1.6v6.7
			C16.8,10.4,16.8,10.4,16.8,10.5C16.8,10.4,16.8,10.5,16.8,10.5z"/>
		<path fill="#FFFFFF" d="M10.1,2.1c-0.8,0-1.5,0.7-1.5,1.6v3.3l-6-6C2,0.3,1,0.3,0.4,0.9c-0.6,0.6-0.6,1.5,0,2.1l6,6H3.2
			c-0.9,0-1.6,0.7-1.6,1.5c0,0.8,0.7,1.5,1.6,1.5H10c0.9,0,1.6-0.7,1.6-1.5c0,0,0,0,0-0.1c0,0,0-0.1,0-0.1V3.7
			C11.5,2.8,10.9,2.1,10.1,2.1z"/>
	</g>
	<g id="Capa_1_156_">
	</g>
</g>
</svg>
