<?xml version="1.0" encoding="utf-8"?>
<!-- Generator: Adobe Illustrator 21.1.0, SVG Export Plug-In . SVG Version: 6.00 Build 0)  -->
<svg version="1.1" id="Layer_1" xmlns="http://www.w3.org/2000/svg" xmlns:xlink="http://www.w3.org/1999/xlink" x="0px" y="0px"
	 width="145.2px" height="129.2px" viewBox="0 0 145.2 129.2" enable-background="new 0 0 145.2 129.2" xml:space="preserve">
<path fill="#FF4F4F" d="M143.4,109.7L83.9,6.5C81.5,2.4,77.3,0,72.6,0c-4.7,0-8.9,2.4-11.3,6.5L1.8,109.7c-2.4,4.1-2.4,8.9,0,13
	c2.4,4.1,6.6,6.5,11.3,6.5h119.1c4.7,0,8.9-2.4,11.3-6.5C145.8,118.6,145.8,113.7,143.4,109.7 M135.6,118.2c-0.3,0.6-1.4,2-3.5,2H13
	c-2.1,0-3.1-1.4-3.5-2c-0.3-0.6-1-2.2,0-4L69.1,11c1-1.8,2.8-2,3.5-2c0.7,0,2.4,0.2,3.5,2l59.6,103.2
	C136.7,116,136,117.6,135.6,118.2"/>
<path fill="#FF4F4F" d="M70.1,90.1H75c1.1,0,2.1-0.9,2.1-2.1V43.9c0-1.1-0.9-2.1-2.1-2.1h-4.9c-1.1,0-2.1,0.9-2.1,2.1v44.1
	C68.1,89.2,69,90.1,70.1,90.1"/>
<path fill="#FF4F4F" d="M72.6,96.8c-3.1,0-5.5,2.5-5.5,5.5c0,3.1,2.5,5.5,5.5,5.5c3.1,0,5.5-2.5,5.5-5.5
	C78.1,99.2,75.6,96.8,72.6,96.8"/>
</svg>
