<?xml version="1.0" encoding="utf-8"?>
<!-- Generator: Adobe Illustrator 21.1.0, SVG Export Plug-In . SVG Version: 6.00 Build 0)  -->
<svg version="1.1" id="Layer_1" xmlns="http://www.w3.org/2000/svg" xmlns:xlink="http://www.w3.org/1999/xlink" x="0px" y="0px"
	 width="600px" height="147.8px" viewBox="0 0 600 147.8" enable-background="new 0 0 600 147.8" xml:space="preserve">
<rect x="293.9" y="32.4" width="8.8" height="83"/>
<path d="M48.4,0C21.7,0,0,21.7,0,48.4v99.4h551.6c26.7,0,48.4-21.7,48.4-48.4V0H48.4z M591.2,99.4c0,21.9-17.8,39.6-39.6,39.6H8.8
	V48.4c0-21.9,17.8-39.6,39.6-39.6h542.8V99.4z"/>
<polygon points="355.9,47.8 402.3,115.4 402.3,115.4 411.1,115.4 411.1,32.4 402.3,32.4 402.3,99.9 355.9,32.4 355.9,32.4 
	355.9,32.4 347.2,32.4 347.2,115.4 355.9,115.4 "/>
<polygon points="167.7,112.7 167.8,112.7 168.6,115.4 170,115.4 172.3,115.4 177.4,115.4 178.2,112.7 178.3,112.7 178.2,112.7 
	199.4,47.3 220.5,112.7 220.5,112.7 220.5,112.7 221.4,115.4 225.1,115.4 226.4,115.4 228.1,115.4 230.1,115.4 231,112.7 231,112.7 
	231,112.7 256.9,32.4 247.8,32.4 225.8,100.5 203.8,32.4 195,32.4 173,100.5 151,32.4 141.8,32.4 167.7,112.7 "/>
<path d="M92.3,107c-11.1,2.4-25.7,0.9-33.9-10.1c-0.4-0.6-1.4-2.2-1.9-3.1l-7.8,3.9c0.8,1.6,2.3,3.8,2.4,4.1l0.1,0.2
	c7.9,10.9,20.4,14.8,31.9,14.8c3.8,0,7.5-0.4,11-1.2c15.8-3.4,22.2-16.1,20.1-26.4c-2.1-10.3-7.4-16.4-30.9-21.1
	C61,63.6,61,58.3,61,54c0-5.6,3-8.2,3.1-8.3l0.4-0.4c5.9-5.9,17.7-5.5,17.9-5.5l0.2,0c15.6,0,19.9,6.2,22.5,9.8l0.3,0.4l7.2-5
	l-0.3-0.4c-3.1-4.4-9.5-13.6-29.6-13.6c-1.5,0-15.7-0.3-24.2,7.9c-1.3,1.1-6.2,5.9-6.2,15c0,12.3,8,18.4,29.4,22.8
	c22.1,4.4,23,9,24,14.2C106.9,97.1,102.7,104.8,92.3,107"/>
<path d="M486.4,116.4c0.3,0,0.9,0.1,1.7,0.1c4.5,0,16-1.2,27.6-12l1.4-1.3V70.6H482v8.8h26.3v19.9c-11,9.3-20.8,8.4-21.1,8.4l-0.5,0
	c-9.5,0-17-2.8-22.5-8.4c-8.2-8.3-9.8-21.1-9.7-24.9c0.1-3.9,0.3-15.6,9.4-25.2c8.7-9.1,22.3-8.9,22.5-8.9c15.6,0,19.9,6.2,22.5,9.8
	l0.3,0.4l7.2-5l-0.3-0.4c-3.1-4.4-9.5-13.6-29.5-13.6h0c-0.7,0-17.5-0.5-29,11.6c-11.5,12.1-11.7,26.4-11.8,31.1
	c0,0.2-0.2,18.6,12.3,31.2C465,112.6,474.6,116.3,486.4,116.4"/>
<path d="M554.7,62.6c4.6,0,8.6-1.5,11.4-4.4c2.8-2.9,4.4-7.1,4.3-11.4c-0.2-7.3-5.2-15.1-15.7-15.1h-11h-0.2v0.2v30.6v0.2h0.2H554.7
	z M549.9,37.9h4.8c6.3,0,9.2,4.5,9.3,8.9c0.1,2.7-0.9,5.2-2.5,6.9c-1.6,1.7-3.9,2.5-6.7,2.5h-4.8V37.9z M543.7,62.2l0,0.2h0V62.2z"
	/>
<rect x="0" y="0" fill="none" width="600" height="147.8"/>
</svg>
