<?xml version="1.0" encoding="utf-8"?>
<!-- Generator: Adobe Illustrator 21.1.0, SVG Export Plug-In . SVG Version: 6.00 Build 0)  -->
<svg version="1.1" id="Layer_1" xmlns="http://www.w3.org/2000/svg" xmlns:xlink="http://www.w3.org/1999/xlink" x="0px" y="0px"
	 width="259.4px" height="404.2px" viewBox="0 0 259.4 404.2" enable-background="new 0 0 259.4 404.2" xml:space="preserve">
<g>
	<defs>
		<rect id="SVGID_1_" width="259.4" height="404.2"/>
	</defs>
	<clipPath id="SVGID_2_">
		<use xlink:href="#SVGID_1_"  overflow="visible"/>
	</clipPath>
	<path clip-path="url(#SVGID_2_)" fill="none" stroke="#2D2D2D" stroke-width="12" stroke-miterlimit="10" d="M47.3,175.9V87.2
		c0-9.1,7.4-16.5,16.5-16.5h93c9.1,0,16.5,7.4,16.5,16.5v42.6"/>
	<path clip-path="url(#SVGID_2_)" fill="none" stroke="#2D2D2D" stroke-width="12" stroke-miterlimit="10" d="M173.3,177.7v104
		c0,9.1-7.4,16.5-16.5,16.5h-93c-5.2,0-9.8-2.4-12.8-6.1"/>
	<path clip-path="url(#SVGID_2_)" fill="none" stroke="#2D2D2D" stroke-width="12" stroke-miterlimit="10" d="M30.8,201.2
		l-17.9-17.9c-2.6-2.6-2.6-6.8,0-9.5l11.5-11.5c2.6-2.6,6.8-2.6,9.5,0l17.9,17.9c4.5,4.4,4.5,11.7,0,16.1l-4.8,4.8
		C42.4,205.6,35.2,205.6,30.8,201.2z"/>
	<path clip-path="url(#SVGID_2_)" fill="none" stroke="#2D2D2D" stroke-width="12" stroke-miterlimit="10" d="M47.3,164.5L9.7,126.8
		c-4.9-4.9-4.9-12.8,0-17.7l5.3-5.3c4.9-4.9,12.8-4.9,17.7,0l14.6,14.6"/>
	
		<path clip-path="url(#SVGID_2_)" fill="none" stroke="#2D2D2D" stroke-width="12" stroke-linecap="round" stroke-miterlimit="10" d="
		M191,214.5l-26.8-58.9c-4.3-9.9,0.2-21.5,10.1-25.8l11.2-4.9l9.9,22.7l58,131"/>
	<path clip-path="url(#SVGID_2_)" fill="none" stroke="#2D2D2D" stroke-width="12" stroke-miterlimit="10" d="M30.8,248.8
		l-17.9-17.9c-2.6-2.6-2.6-6.8,0-9.5l11.5-11.5c2.6-2.6,6.8-2.6,9.5,0l17.9,17.9c4.5,4.4,4.5,11.7,0,16.1l-4.8,4.8
		C42.4,253.2,35.2,253.2,30.8,248.8z"/>
	<path clip-path="url(#SVGID_2_)" fill="none" stroke="#2D2D2D" stroke-width="12" stroke-miterlimit="10" d="M30.8,296.3
		l-17.9-17.9c-2.6-2.6-2.6-6.8,0-9.5l11.5-11.5c2.6-2.6,6.8-2.6,9.5,0l17.9,17.9c4.5,4.4,4.5,11.7,0,16.1l-4.8,4.8
		C42.4,300.8,35.2,300.8,30.8,296.3z"/>
	<path clip-path="url(#SVGID_2_)" fill="none" stroke="#2D2D2D" stroke-width="12" stroke-miterlimit="10" d="M63.8,298.2l33.2,35
		c21.8,22.9,56.6,26.2,82,9.1c4.5-3,8.4-6.9,11.7-11.2l53.5-71.4"/>
	
		<path clip-path="url(#SVGID_2_)" fill="none" stroke="#00D3AA" stroke-width="12" stroke-linecap="round" stroke-miterlimit="10" d="
		M154,26.5H169c23.4,0,42.4,19,42.4,42.4v14.9"/>
	<polyline clip-path="url(#SVGID_2_)" fill="none" stroke="#00D3AA" stroke-width="12" stroke-miterlimit="10" points="173.3,48.7 
		151.1,26.5 173.3,4.2 	"/>
	
		<path clip-path="url(#SVGID_2_)" fill="none" stroke="#00D3AA" stroke-width="12" stroke-linecap="round" stroke-miterlimit="10" d="
		M78.2,377.8H63.3c-23.4,0-42.4-19-42.4-42.4v-14.9"/>
	<polyline clip-path="url(#SVGID_2_)" fill="none" stroke="#00D3AA" stroke-width="12" stroke-miterlimit="10" points="58.9,355.6 
		81.1,377.8 58.9,400 	"/>
	
		<line clip-path="url(#SVGID_2_)" fill="none" stroke="#2D2D2D" stroke-width="12" stroke-linecap="round" stroke-miterlimit="10" x1="89.6" y1="91.7" x2="131.1" y2="91.7"/>
	
		<line clip-path="url(#SVGID_2_)" fill="none" stroke="#2D2D2D" stroke-width="3" stroke-linecap="round" stroke-miterlimit="10" x1="93.2" y1="250.3" x2="148.6" y2="194.9"/>
	
		<line clip-path="url(#SVGID_2_)" fill="none" stroke="#2D2D2D" stroke-width="3" stroke-linecap="round" stroke-miterlimit="10" x1="93.2" y1="180.4" x2="148.6" y2="124.9"/>
	
		<line clip-path="url(#SVGID_2_)" fill="none" stroke="#2D2D2D" stroke-width="3" stroke-linecap="round" stroke-miterlimit="10" x1="100.1" y1="229.5" x2="127.8" y2="201.8"/>
</g>
</svg>
