{
  "accessors": [
    {
      "bufferView": 0,
      "componentType": 5125,
      "count": 15594,
      "type": "SCALAR"
    },
    {
      "bufferView": 1,
      "componentType": 5126,
      "count": 5198,
      "max": [
        1.00000011920929,
        0.320000022649765,
        0.400000065565109
      ],
      "min": [
        -1.0,
        -0.319999992847443,
        -0.400000035762787
      ],
      "type": "VEC3"
    },
    {
      "bufferView": 2,
      "componentType": 5126,
      "count": 5198,
      "type": "VEC3"
    },
    {
      "bufferView": 3,
      "componentType": 5126,
      "count": 5198,
      "type": "VEC2"
    }
  ],
  "asset": {
    "generator": "Substance Painter 2018.1.0",
    "version": "2.0"
  },
  "bufferViews": [
    {
      "buffer": 0,
      "byteLength": 62376,
      "target": 34963
    },
    {
      "buffer": 0,
      "byteLength": 62376,
      "byteOffset": 62376,
      "target": 34962
    },
    {
      "buffer": 0,
      "byteLength": 62376,
      "byteOffset": 124752,
      "target": 34962
    },
    {
      "buffer": 0,
      "byteLength": 41584,
      "byteOffset": 187128,
      "target": 34962
    }
  ],
  "buffers": [
    {
      "byteLength": 228712,
      "uri": "PBR - Metallic Roughness.bin"
    }
  ],
  "images": [
    {
      "uri": "DefaultMaterial_baseColor.png"
    },
    {
      "uri": "DefaultMaterial_occlusionRoughnessMetallic.png"
    },
    {
      "uri": "DefaultMaterial_normal.png"
    }
  ],
  "materials": [
    {
      "alphaMode": "OPAQUE",
      "name": "DefaultMaterial",
      "normalTexture": {
        "index": 2
      },
      "occlusionTexture": {
        "index": 1
      },
      "pbrMetallicRoughness": {
        "baseColorTexture": {
          "index": 0
        },
        "metallicRoughnessTexture": {
          "index": 1
        }
      }
    }
  ],
  "meshes": [
    {
      "name": "spaceship_body_low",
      "primitives": [
        {
          "attributes": {
            "NORMAL": 2,
            "POSITION": 1,
            "TEXCOORD_0": 3
          },
          "indices": 0,
          "material": 0,
          "mode": 4
        }
      ]
    }
  ],
  "nodes": [
    {
      "children": [
        1
      ],
      "name": "root",
      "scale": [
        250.000030517578,
        250.000030517578,
        250.000030517578
      ],
      "translation": [
        160.000015258789,
        10.0,
        7.62939453125e-06
      ]
    },
    {
      "children": [
        2
      ],
      "name": "spaceship_body_low"
    },
    {
      "mesh": 0,
      "name": "spaceship_body_low"
    }
  ],
  "samplers": [
    {
      "magFilter": 9729,
      "minFilter": 9985,
      "wrapS": 10497,
      "wrapT": 10497
    }
  ],
  "scene": 0,
  "scenes": [
    {
      "name": "Scene",
      "nodes": [
        0
      ]
    }
  ],
  "textures": [
    {
      "sampler": 0,
      "source": 0
    },
    {
      "sampler": 0,
      "source": 1
    },
    {
      "sampler": 0,
      "source": 2
    }
  ]
}